PathFileType	4	(X/Y/Z)	C:/Users/empri/Downloads/Take 2024-05-09 02.19.33 PM.trc
DataRate	CameraRate	NumFrames	NumMarkers	Units	OrigDataRate	OrigDataStartFrame	OrigNumFrames
240	240	31	9	mm	240	0	841
Frame#	Time	C7	CLAV	RELB	RFIN	RFRM	RSHO	RUPA	RWRA	RWRB
X1	Y1	Z1	X2	Y2	Z2	X3	Y3	Z3	X4	Y4	Z4	X5	Y5	Z5	X6	Y6	Z6	X7	Y7	Z7	X8	Y8	Z8	X9	Y9	Z9
0	0	-127.605	1541.1	-48.0022	30.4553	1363.12	-142.172	92.0463	1143.1	133.296	161.682	839.818	19.8881	97.6038	1017.66	147.536	23.7435	1480.87	66.3726	59.5484	1320.9	133.515	116.334	915.748	32.1853	82.4788	883.773	116.736
1	0.004	-127.596	1541.1	-48.0072	30.4639	1363.12	-142.187	92.0862	1143.1	133.294	161.72	839.812	19.8805	97.647	1017.65	147.527	23.7609	1480.86	66.3653	59.5604	1320.89	133.507	116.383	915.73	32.1952	82.5209	883.769	116.724
2	0.008	-127.588	1541.1	-48.0057	30.4666	1363.12	-142.191	92.1259	1143.07	133.276	161.748	839.794	19.8796	97.6759	1017.64	147.517	23.7707	1480.85	66.3629	59.5799	1320.88	133.499	116.411	915.718	32.1919	82.5651	883.756	116.729
3	0.013	-127.573	1541.09	-48.0088	30.4669	1363.11	-142.206	92.1639	1143.07	133.263	161.778	839.764	19.8694	97.7205	1017.63	147.512	23.7839	1480.84	66.3613	59.5986	1320.87	133.493	116.436	915.704	32.1907	82.6112	883.748	116.733
4	0.017	-127.566	1541.09	-48.0149	30.4671	1363.09	-142.222	92.1907	1143.06	133.248	161.805	839.737	19.8569	97.7565	1017.62	147.495	23.7976	1480.83	66.3596	59.6219	1320.86	133.477	116.449	915.679	32.1941	82.6527	883.739	116.732
5	0.021	-127.562	1541.07	-48.0256	30.4754	1363.08	-142.226	92.2198	1143.05	133.232	161.833	839.712	19.8472	97.7977	1017.61	147.481	23.8026	1480.82	66.3614	59.6333	1320.85	133.468	116.476	915.671	32.1934	82.6941	883.72	116.725
6	0.025	-127.555	1541.07	-48.0292	30.4783	1363.09	-142.248	92.2544	1143.05	133.211	161.866	839.698	19.8371	97.8302	1017.61	147.464	23.823	1480.82	66.3517	59.6493	1320.84	133.455	116.507	915.663	32.1761	82.7305	883.699	116.712
7	0.029	-127.547	1541.08	-48.0427	30.4895	1363.08	-142.26	92.2869	1143.03	133.178	161.898	839.691	19.8344	97.8618	1017.61	147.44	23.8362	1480.82	66.3445	59.6593	1320.84	133.438	116.53	915.65	32.1639	82.7917	883.689	116.694
8	0.033	-127.535	1541.06	-48.0393	30.4879	1363.08	-142.264	92.3148	1143.03	133.165	161.935	839.686	19.8337	97.8985	1017.6	147.43	23.8486	1480.82	66.3355	59.6752	1320.83	133.423	116.544	915.624	32.1479	82.8322	883.675	116.681
9	0.038	-127.515	1541.1	-48.0403	30.4907	1363.07	-142.271	92.344	1143.03	133.14	161.976	839.685	19.8263	97.9245	1017.6	147.414	23.8568	1480.81	66.3277	59.7011	1320.82	133.414	116.546	915.596	32.1392	82.8785	883.679	116.684
10	0.042	-127.5	1541.1	-48.0443	30.496	1363.06	-142.287	92.3742	1143.02	133.11	162.014	839.693	19.8222	97.9351	1017.6	147.404	23.8619	1480.8	66.3221	59.7174	1320.82	133.406	116.55	915.58	32.1203	82.9147	883.686	116.679
11	0.046	-127.498	1541.1	-48.0504	30.5099	1363.07	-142.298	92.4017	1143.01	133.088	162.053	839.694	19.8112	97.9577	1017.59	147.387	23.8759	1480.8	66.3114	59.7278	1320.81	133.389	116.577	915.576	32.099	82.9435	883.668	116.673
12	0.05	-127.483	1541.09	-48.0755	30.5279	1363.07	-142.303	92.437	1143.02	133.059	162.089	839.699	19.8	97.9809	1017.59	147.362	23.8819	1480.8	66.2996	59.7428	1320.81	133.361	116.601	915.574	32.0843	82.9852	883.649	116.652
13	0.054	-127.474	1541.1	-48.0822	30.5344	1363.07	-142.314	92.4661	1143.02	133.032	162.125	839.701	19.7853	98.0228	1017.59	147.344	23.8913	1480.8	66.293	59.7551	1320.8	133.348	116.625	915.577	32.0648	83.0119	883.663	116.645
14	0.058	-127.464	1541.11	-48.0911	30.5467	1363.11	-142.312	92.5034	1143.04	133.009	162.156	839.698	19.7651	98.0582	1017.61	147.324	23.9059	1480.81	66.2883	59.7693	1320.81	133.337	116.646	915.579	32.0496	83.047	883.667	116.64
15	0.063	-127.447	1541.1	-48.0985	30.554	1363.11	-142.324	92.5432	1143.04	132.98	162.189	839.687	19.7447	98.097	1017.61	147.304	23.9232	1480.81	66.2803	59.7947	1320.81	133.32	116.671	915.572	32.0363	83.0965	883.667	116.631
16	0.067	-127.441	1541.1	-48.1083	30.5643	1363.09	-142.328	92.574	1143.04	132.961	162.212	839.675	19.7221	98.1294	1017.61	147.277	23.9335	1480.81	66.273	59.8099	1320.8	133.309	116.687	915.557	32.0177	83.1311	883.664	116.612
17	0.071	-127.442	1541.08	-48.125	30.5784	1363.09	-142.34	92.6066	1143.05	132.937	162.24	839.662	19.696	98.1636	1017.6	147.25	23.9468	1480.81	66.267	59.8212	1320.8	133.286	116.715	915.559	31.9978	83.1522	883.665	116.603
18	0.075	-127.44	1541.09	-48.1391	30.5763	1363.09	-142.359	92.6344	1143.06	132.904	162.261	839.672	19.6722	98.198	1017.61	147.216	23.96	1480.82	66.2548	59.8341	1320.81	133.267	116.735	915.567	31.9701	83.1829	883.656	116.572
19	0.079	-127.436	1541.1	-48.1498	30.5867	1363.11	-142.369	92.6736	1143.07	132.871	162.278	839.674	19.6437	98.2363	1017.63	147.189	23.9766	1480.83	66.237	59.8446	1320.83	133.248	116.755	915.573	31.9383	83.2146	883.662	116.556
20	0.083	-127.428	1541.1	-48.1601	30.5867	1363.09	-142.384	92.6998	1143.07	132.844	162.298	839.673	19.6185	98.2711	1017.63	147.165	23.9863	1480.83	66.2286	59.8665	1320.83	133.232	116.755	915.561	31.9181	83.2432	883.673	116.543
21	0.088	-127.416	1541.1	-48.1651	30.5871	1363.08	-142.393	92.7233	1143.07	132.823	162.324	839.681	19.5936	98.3086	1017.64	147.142	24.0154	1480.83	66.1809	59.8874	1320.83	133.222	116.766	915.543	31.8786	83.2788	883.68	116.529
22	0.092	-127.414	1541.11	-48.1746	30.5892	1363.09	-142.401	92.7401	1143.08	132.801	162.339	839.693	19.5638	98.3236	1017.64	147.118	24.017	1480.84	66.171	59.894	1320.84	133.216	116.771	915.547	31.8476	83.3117	883.682	116.508
23	0.096	-127.398	1541.12	-48.1722	30.6039	1363.09	-142.419	92.7611	1143.09	132.772	162.363	839.714	19.528	98.3405	1017.64	147.084	24.0289	1480.84	66.1585	59.9096	1320.85	133.193	116.779	915.549	31.8105	83.3346	883.679	116.486
24	0.1	-127.386	1541.12	-48.1801	30.6211	1363.1	-142.43	92.7832	1143.09	132.751	162.383	839.716	19.4959	98.3754	1017.65	147.055	24.0422	1480.85	66.1433	59.9232	1320.85	133.17	116.799	915.575	31.7819	83.3574	883.681	116.455
25	0.104	-127.388	1541.12	-48.2192	30.6297	1363.11	-142.437	92.8033	1143.11	132.727	162.394	839.733	19.4553	98.404	1017.66	147.03	24.0512	1480.87	66.129	59.942	1320.86	133.152	116.813	915.595	31.7565	83.3795	883.684	116.42
26	0.108	-127.391	1541.12	-48.24	30.6306	1363.13	-142.448	92.8157	1143.13	132.705	162.404	839.751	19.417	98.4295	1017.69	147.01	24.0602	1480.88	66.121	59.956	1320.88	133.14	116.805	915.617	31.7325	83.4086	883.689	116.396
27	0.113	-127.385	1541.12	-48.2523	30.6264	1363.13	-142.45	92.8262	1143.14	132.667	162.411	839.767	19.372	98.4445	1017.7	146.974	24.0663	1480.9	66.1087	60.0027	1320.89	133.13	116.795	915.604	31.6873	83.4341	883.704	116.365
28	0.117	-127.379	1541.11	-48.2629	30.6297	1363.11	-142.457	92.8454	1143.15	132.652	162.415	839.766	19.3331	98.4648	1017.69	146.946	24.0796	1480.9	66.0949	60.024	1320.89	133.112	116.792	915.595	31.6591	83.4564	883.715	116.343
29	0.121	-127.378	1541.11	-48.2735	30.6343	1363.1	-142.473	92.8599	1143.15	132.623	162.42	839.766	19.283	98.4831	1017.69	146.911	24.0893	1480.9	66.0835	60.0343	1320.9	133.098	116.798	915.602	31.62	83.464	883.745	116.298
30	0.125	-127.378	1541.12	-48.283	30.6418	1363.12	-142.489	92.877	1143.15	132.595	162.423	839.785	19.228	98.5008	1017.7	146.873	24.0981	1480.9	66.0639	60.0486	1320.92	133.077	116.818	915.62	31.5653	83.4813	883.74	116.256
